<svg xmlns="http://www.w3.org/2000/svg" width="20" height="20" viewBox="0 0 20 20"><defs><style>.a{fill:#f5f5ff;}.b{fill:#e2e7fa;}.c{fill:#ef5ca2;}.d{fill:#ea1c81;}.e{fill:#ffc178;}.f{fill:#fffa8c;}.g{fill:#453d81;}.h{fill:#6b61b1;}</style></defs><path class="a" d="M17.852,193.763H2.148A2.063,2.063,0,0,1,0,191.8v-9.268A.562.562,0,0,1,.586,182H19.414a.562.562,0,0,1,.586.535V191.8A2.063,2.063,0,0,1,17.852,193.763Z" transform="translate(0 -173.763)"/><path class="b" d="M264.59,182H256v11.763h7.165a1.963,1.963,0,0,0,1.96-1.96v-9.268A.535.535,0,0,0,264.59,182Z" transform="translate(-245.125 -173.763)"/><path class="c" d="M17.852,60H2.148A2.063,2.063,0,0,0,0,61.96v2.923H20V61.96A2.063,2.063,0,0,0,17.852,60Z" transform="translate(0 -57.861)"/><path class="d" d="M263.165,60H256v4.883h9.125V61.96A1.963,1.963,0,0,0,263.165,60Z" transform="translate(-245.125 -57.861)"/><path class="e" d="M347.069,0A1.069,1.069,0,0,0,346,1.069V4.277a1.069,1.069,0,0,0,2.139,0V1.069A1.069,1.069,0,0,0,347.069,0Z" transform="translate(-332.327)"/><path class="f" d="M107.069,5.347A1.069,1.069,0,0,1,106,4.277V1.069a1.069,1.069,0,0,1,2.139,0V4.277A1.069,1.069,0,0,1,107.069,5.347Z" transform="translate(-101.811)"/><path class="g" d="M273.669,242H272.3a.535.535,0,1,0,0,1.069h.837v5.881a.535.535,0,0,0,1.069,0v-6.416A.535.535,0,0,0,273.669,242Z" transform="translate(-261.004 -231.624)"/><path class="h" d="M136.041,244.139a2.139,2.139,0,0,0-4.237-.414.535.535,0,1,0,1.049.206,1.069,1.069,0,1,1,1.049,1.277.535.535,0,0,0,0,1.069,1.069,1.069,0,1,1-1.059,1.219,1.09,1.09,0,0,1-.01-.15.535.535,0,1,0-1.069,0,2.137,2.137,0,0,0,2.139,2.139,2.137,2.137,0,0,0,1.412-3.743A2.134,2.134,0,0,0,136.041,244.139Z" transform="translate(-126.479 -231.624)"/></svg>