<svg xmlns="http://www.w3.org/2000/svg" xmlns:xlink="http://www.w3.org/1999/xlink" width="20" height="19.228" viewBox="0 0 20 19.228"><defs><style>.a{fill:url(#a);}.b{fill:url(#b);}.c{fill:url(#c);}.d{fill:url(#d);}.e{fill:#fff;}.f{fill:url(#e);}.g{fill:url(#f);}</style><linearGradient id="a" x1="0.395" y1="0.156" x2="1.126" y2="-0.576" gradientUnits="objectBoundingBox"><stop offset="0" stop-color="#a7f3ce"/><stop offset="1" stop-color="#61db99"/></linearGradient><linearGradient id="b" x1="0.634" y1="-0.084" x2="0.324" y2="0.227" gradientUnits="objectBoundingBox"><stop offset="0" stop-color="#61db99" stop-opacity="0"/><stop offset="1" stop-color="#009e74"/></linearGradient><linearGradient id="c" x1="0.316" y1="0.784" x2="0.949" y2="0.15" gradientUnits="objectBoundingBox"><stop offset="0" stop-color="#62e1fb"/><stop offset="1" stop-color="#00a2f3"/></linearGradient><linearGradient id="d" x1="0.761" y1="0.176" x2="-0.265" y2="1.201" gradientUnits="objectBoundingBox"><stop offset="0" stop-color="#00a2f3" stop-opacity="0"/><stop offset="1" stop-color="#0075cd"/></linearGradient><linearGradient id="e" x1="0.758" y1="0.176" x2="-0.267" y2="1.201" xlink:href="#d"/><linearGradient id="f" x1="0.756" y1="0.176" x2="-0.27" y2="1.201" xlink:href="#d"/></defs><g transform="translate(0 -9.884)"><path class="a" d="M180.967,164.113a7.087,7.087,0,0,1,7.026,8.612,12.843,12.843,0,0,0-.32,2.765v1.8a.5.5,0,0,1-.5.5h-1.8a12.843,12.843,0,0,0-2.765.32,7.082,7.082,0,1,1-1.642-14Z" transform="translate(-168.159 -149.164)"/><path class="b" d="M180.967,164.113a7.087,7.087,0,0,1,7.026,8.612,12.843,12.843,0,0,0-.32,2.765v1.8a.5.5,0,0,1-.5.5h-1.8a12.843,12.843,0,0,0-2.765.32,7.082,7.082,0,1,1-1.642-14Z" transform="translate(-168.159 -149.164)"/><path class="c" d="M8.761,9.885A8.633,8.633,0,0,0,.2,20.377a15.647,15.647,0,0,1,.39,3.369v2.192a.608.608,0,0,0,.608.608H3.392a15.648,15.648,0,0,1,3.369.39,8.628,8.628,0,1,0,2-17.051Z" transform="translate(0)"/><path class="d" d="M79.4,195.1a1.335,1.335,0,1,0-1.887,1.887l2.883,2.883a1.335,1.335,0,1,0,1.887-1.887Z" transform="translate(-74.162 -177.772)"/><circle class="e" cx="1.336" cy="1.336" r="1.336" transform="translate(2.98 17.024)"/><path class="f" d="M169.595,195.1a1.335,1.335,0,1,0-1.887,1.887l2.883,2.883a1.335,1.335,0,1,0,1.887-1.887Z" transform="translate(-160.92 -177.772)"/><circle class="e" cx="1.336" cy="1.336" r="1.336" transform="translate(6.467 17.024)"/><path class="g" d="M259.784,195.1a1.335,1.335,0,1,0-1.887,1.887l2.883,2.883a1.335,1.335,0,1,0,1.887-1.887Z" transform="translate(-247.677 -177.772)"/><circle class="e" cx="1.336" cy="1.336" r="1.336" transform="translate(9.953 17.024)"/></g></svg>