<svg xmlns="http://www.w3.org/2000/svg" xmlns:xlink="http://www.w3.org/1999/xlink" width="20" height="20" viewBox="0 0 20 20"><defs><style>.a{fill:url(#a);}.b{fill:url(#b);}.c{fill:url(#c);}.d{fill:url(#d);}.e{fill:url(#g);}.f{fill:url(#h);}.g{fill:url(#i);}.h{fill:url(#j);}</style><linearGradient id="a" x1="0.5" y1="0.208" x2="0.5" y2="1" gradientUnits="objectBoundingBox"><stop offset="0" stop-color="#ff9100"/><stop offset="1" stop-color="#e63950"/></linearGradient><linearGradient id="b" x1="0.5" y1="0.208" x2="0.5" y2="1" gradientUnits="objectBoundingBox"><stop offset="0" stop-color="#fdbf00"/><stop offset="1" stop-color="#ff9100"/></linearGradient><linearGradient id="c" x1="0.114" y1="0.089" x2="0.698" y2="0.845" gradientUnits="objectBoundingBox"><stop offset="0" stop-color="#ffda2d"/><stop offset="1" stop-color="#fdbf00"/></linearGradient><linearGradient id="d" x1="0.389" y1="0.415" x2="0.846" y2="0.763" gradientUnits="objectBoundingBox"><stop offset="0" stop-color="#76e2f8"/><stop offset="1" stop-color="#48b2e3"/></linearGradient><linearGradient id="g" x1="0.5" y1="0.42" x2="0.5" y2="1.346" gradientUnits="objectBoundingBox"><stop offset="0" stop-color="#ff9100" stop-opacity="0"/><stop offset="1" stop-color="#ff9100"/></linearGradient><linearGradient id="h" x1="0.807" y1="1.055" x2="0.305" y2="0.506" xlink:href="#g"/><linearGradient id="i" x1="0.329" y1="0.305" x2="1.261" y2="1.024" gradientUnits="objectBoundingBox"><stop offset="0" stop-color="#b9dd39"/><stop offset="1" stop-color="#0b799d"/></linearGradient><linearGradient id="j" x1="-0.054" y1="0.532" x2="-2.04" y2="1.19" gradientUnits="objectBoundingBox"><stop offset="0" stop-color="#0b799d" stop-opacity="0"/><stop offset="0.364" stop-color="#096380" stop-opacity="0.365"/><stop offset="0.76" stop-color="#084f67" stop-opacity="0.761"/><stop offset="1" stop-color="#07485e"/></linearGradient></defs><g transform="translate(0 0)"><path class="a" d="M98.034,2.607H92.313V.978A.978.978,0,0,1,93.291,0h3.766a.978.978,0,0,1,.978.978Z" transform="translate(-88.384 0)"/><path class="b" d="M53.2,2.607H47.482V.978A.978.978,0,0,1,48.46,0h3.766A.978.978,0,0,1,53.2.978Z" transform="translate(-45.925 0)"/><path class="c" d="M6.842,2.326v-1.1A1.2,1.2,0,0,0,5.673,0h-4.5A1.2,1.2,0,0,0,0,1.225V14.458A1.707,1.707,0,0,0,1.666,16.2H18.334A1.707,1.707,0,0,0,20,14.458V4.605a1.707,1.707,0,0,0-1.666-1.746H7.351a.521.521,0,0,1-.509-.533Z" transform="translate(0 0)"/><g transform="translate(15.293 4.037)"><path class="d" d="M367.149,97.557h-.335a.348.348,0,0,1-.348-.348v-.335a.348.348,0,0,1,.348-.348h.335a.348.348,0,0,1,.348.348v.335A.348.348,0,0,1,367.149,97.557Z" transform="translate(-366.465 -96.525)"/><path class="d" d="M407.28,97.557h-.335a.348.348,0,0,1-.348-.348v-.335a.348.348,0,0,1,.348-.348h.335a.348.348,0,0,1,.348.348v.335A.348.348,0,0,1,407.28,97.557Z" transform="translate(-405.28 -96.525)"/><path class="d" d="M447.411,97.557h-.335a.348.348,0,0,1-.348-.348v-.335a.348.348,0,0,1,.348-.348h.335a.348.348,0,0,1,.348.348v.335A.348.348,0,0,1,447.411,97.557Z" transform="translate(-444.095 -96.525)"/></g><path class="e" d="M0,304.771v1.54A1.548,1.548,0,0,0,1.666,307.7H18.334A1.548,1.548,0,0,0,20,306.311v-1.54Z" transform="translate(0 -291.501)"/></g><path class="f" d="M136.214,172.437l-6.12-6.12a.757.757,0,0,0-.672-.246h-2.889a.67.67,0,0,0-.73.73v3.224h-1.266a.938.938,0,0,0-.789,1.505l1.17,2.023h9.929A1.393,1.393,0,0,0,136.214,172.437Z" transform="translate(-116.241 -158.695)"/><g transform="translate(5.609 8.624)"><path class="g" d="M128.828,167.023h-.972V163.9a.828.828,0,0,0-.828-.828h-2.889a.828.828,0,0,0-.828.828v3.125h-1.167a1.047,1.047,0,0,0-.887,1.6l3.342,5.329a1.047,1.047,0,0,0,1.774,0l3.342-5.329A1.047,1.047,0,0,0,128.828,167.023Z" transform="translate(-121.095 -163.07)"/><path class="h" d="M258.342,167.023h-.972V163.9a.828.828,0,0,0-.828-.828H255v11.376a1.039,1.039,0,0,0,.887-.491l3.342-5.329A1.047,1.047,0,0,0,258.342,167.023Z" transform="translate(-250.609 -163.07)"/></g></svg>