<svg xmlns="http://www.w3.org/2000/svg" width="19" height="20" viewBox="0 0 19 20"><defs><style>.a{fill:#2196f3;}.b{fill:#607d8b;}.c{fill:#64b5f6;}</style></defs><g transform="translate(0 -0.004)"><path class="a" d="M35.817,11.052A2.38,2.38,0,0,1,33.663,8.5a2.38,2.38,0,0,1,2.153-2.55h1.435v-3.4A2.38,2.38,0,0,0,35.1,0H27.383a.694.694,0,0,0-.591.368.982.982,0,0,0-.079.784l5.2,16.147a.731.731,0,0,0,.67.547H35.1a2.38,2.38,0,0,0,2.153-2.55V11.052Zm0,0" transform="translate(-25.768)"/><path class="b" d="M281.364,113.789a.719.719,0,0,1-.443-.663v-2.153H278.05a.718.718,0,1,1,0-1.435h2.871v-2.153a.717.717,0,0,1,1.225-.507l2.871,2.871a.717.717,0,0,1,0,1.015l-2.871,2.871A.718.718,0,0,1,281.364,113.789Zm0,0" transform="translate(-266.227 -101.083)"/><path class="c" d="M6.206,1.819,1.893.15A1.5,1.5,0,0,0,0,1.734v15a1.677,1.677,0,0,0,.972,1.582l4.312,1.669a1.326,1.326,0,0,0,.458.083A1.566,1.566,0,0,0,7.178,18.4V3.4a1.677,1.677,0,0,0-.972-1.582Zm0,0" transform="translate(0 -0.064)"/></g></svg>