<svg xmlns="http://www.w3.org/2000/svg" width="20" height="20" viewBox="0 0 20 20"><defs><style>.a{fill:#cfd8dc;}.b{fill:#b4bcc0;}.c{fill:#90a4ae;}.d{fill:#7d8f97;}.e{fill:#ff4471;}.f{fill:#e53560;}</style></defs><path class="a" d="M18.542,8H1.458A1.408,1.408,0,0,0,0,9.337v9.55a1.408,1.408,0,0,0,1.458,1.337H18.542A1.408,1.408,0,0,0,20,18.887V9.337A1.408,1.408,0,0,0,18.542,8Z" transform="translate(0 -0.223)"/><path class="b" d="M9.168,8H1.337A1.343,1.343,0,0,0,0,9.337v9.55a1.343,1.343,0,0,0,1.337,1.337H9.168Z" transform="translate(0 -0.223)"/><path class="c" d="M18.876,12.337V17.3a1.338,1.338,0,0,1-1.337,1.337h-4.2A1.338,1.338,0,0,1,12,17.3V12.337A1.338,1.338,0,0,1,13.337,11h4.2A1.338,1.338,0,0,1,18.876,12.337Z" transform="translate(-1.168 -0.932)"/><path class="d" d="M15.247,11h-1.91A1.338,1.338,0,0,0,12,12.337V17.3a1.338,1.338,0,0,0,1.337,1.337h1.91Z" transform="translate(-1.821 -0.932)"/><g transform="translate(2.292 10.378)"><path class="c" d="M7.775,16.146h-4.2a.573.573,0,1,1,0-1.146h4.2a.573.573,0,1,1,0,1.146Z" transform="translate(-3 -12.708)"/><path class="c" d="M8.348,18.573a.577.577,0,0,1-.573.573h-4.2a.573.573,0,1,1,0-1.146h4.2A.577.577,0,0,1,8.348,18.573Z" transform="translate(-3 -13.416)"/><path class="c" d="M7.775,13.146h-4.2a.573.573,0,1,1,0-1.146h4.2a.573.573,0,1,1,0,1.146Z" transform="translate(-3 -12)"/></g><path class="e" d="M18.542,0H1.458A1.4,1.4,0,0,0,0,1.337v1.91A1.4,1.4,0,0,0,1.458,4.584H18.542A1.4,1.4,0,0,0,20,3.247V1.337A1.4,1.4,0,0,0,18.542,0Z"/><g transform="translate(2.292 10.378)"><path class="d" d="M5.674,15h-2.1a.573.573,0,1,0,0,1.146h2.1Z" transform="translate(-3 -12.708)"/><path class="d" d="M5.674,18h-2.1a.573.573,0,1,0,0,1.146h2.1Z" transform="translate(-3 -13.416)"/><path class="d" d="M5.674,12h-2.1a.573.573,0,1,0,0,1.146h2.1Z" transform="translate(-3 -12)"/></g><path class="f" d="M9.168,0H1.337A1.343,1.343,0,0,0,0,1.337v1.91A1.343,1.343,0,0,0,1.337,4.584H9.168Z"/></svg>