<svg xmlns="http://www.w3.org/2000/svg" xmlns:xlink="http://www.w3.org/1999/xlink" width="20" height="21.977" viewBox="0 0 20 21.977"><defs><style>.a{fill:url(#a);}.b{fill:url(#b);}.c{fill:url(#c);}.d{fill:url(#d);}.e{fill:url(#e);}.f{fill:url(#f);}.g{fill:url(#g);}.h{fill:url(#h);}.i{fill:url(#i);}.j{fill:url(#j);}.k{fill:url(#k);}.l{fill:#61db99;}.m{fill:url(#l);}.n{fill:url(#m);}.o{fill:url(#n);}.p{fill:url(#o);}.q{fill:url(#p);}.r{fill:url(#q);}.s{fill:url(#r);}</style><linearGradient id="a" x1="0.514" y1="0.999" x2="0.508" y2="0.8" gradientUnits="objectBoundingBox"><stop offset="0" stop-color="#ffb92d"/><stop offset="1" stop-color="#f59500"/></linearGradient><linearGradient id="b" x1="0.544" y1="0.884" x2="0.527" y2="0.725" xlink:href="#a"/><linearGradient id="c" x1="0.497" y1="2.381" x2="0.497" y2="2.115" gradientUnits="objectBoundingBox"><stop offset="0" stop-color="#a7f3ce"/><stop offset="1" stop-color="#61db99"/></linearGradient><linearGradient id="d" x1="0.497" y1="1.192" x2="0.497" y2="0.334" gradientUnits="objectBoundingBox"><stop offset="0" stop-color="#ff4c54"/><stop offset="1" stop-color="#be3f45"/></linearGradient><linearGradient id="e" x1="0.497" y1="0.009" x2="0.497" y2="-0.849" xlink:href="#d"/><linearGradient id="f" x1="0.595" y1="0.09" x2="0.113" y2="0.09" gradientUnits="objectBoundingBox"><stop offset="0" stop-color="#be3f45" stop-opacity="0"/><stop offset="1" stop-color="#be3f45"/></linearGradient><linearGradient id="g" x1="0.328" y1="0.312" x2="0.748" y2="0.118" xlink:href="#a"/><linearGradient id="h" x1="0.484" y1="-2.152" x2="0.467" y2="-2.526" xlink:href="#f"/><linearGradient id="i" x1="0.488" y1="14.281" x2="0.488" y2="-6.552" gradientUnits="objectBoundingBox"><stop offset="0" stop-color="#fff465"/><stop offset="1" stop-color="#ffe600"/></linearGradient><linearGradient id="j" x1="0.497" y1="0.68" x2="0.497" y2="-0.33" xlink:href="#i"/><linearGradient id="k" x1="0.486" y1="-3.309" x2="0.486" y2="-23.828" xlink:href="#i"/><linearGradient id="l" x1="0.754" y1="-1.086" x2="-0.167" y2="-0.458" xlink:href="#f"/><linearGradient id="m" x1="0.478" y1="-1.436" x2="0.478" y2="-2.157" xlink:href="#d"/><linearGradient id="n" x1="0.469" y1="-3.071" x2="0.469" y2="-2.351" xlink:href="#d"/><linearGradient id="o" x1="-4.368" y1="7.43" x2="-3.372" y2="3.032" xlink:href="#c"/><linearGradient id="p" x1="-4.375" y1="7.43" x2="-3.379" y2="3.031" xlink:href="#c"/><linearGradient id="q" x1="-4.762" y1="5.504" x2="-3.766" y2="1.105" xlink:href="#c"/><linearGradient id="r" x1="-4.769" y1="5.504" x2="-3.773" y2="1.105" xlink:href="#c"/></defs><g transform="translate(-23.025 0)"><path class="a" d="M41.407,86.577H24.643a1.643,1.643,0,0,1-1.618-1.667V70.521a1.643,1.643,0,0,1,1.618-1.667H41.407a1.643,1.643,0,0,1,1.618,1.667V84.909A1.643,1.643,0,0,1,41.407,86.577Z" transform="translate(0 -66.224)"/><path class="b" d="M51.068,92.4h-16.1a1.473,1.473,0,0,1-1.554-1.375V79.161a1.473,1.473,0,0,1,1.554-1.375h16.1a1.473,1.473,0,0,1,1.554,1.375V91.026A1.472,1.472,0,0,1,51.068,92.4Z" transform="translate(-9.993 -72.389)"/><path class="c" d="M60.908,6.647,56.829.433A1.061,1.061,0,0,0,55.484.117L42.621,6.647Z" transform="translate(-18.848 0)"/><path class="d" d="M23.025,159.182h20V154.47a1.15,1.15,0,0,0-1.211-1.077H24.236a1.15,1.15,0,0,0-1.211,1.077Z" transform="translate(0 -146.503)"/><path class="e" d="M23.025,236.2v6.612a1.536,1.536,0,0,0,1.618,1.439H41.407a1.536,1.536,0,0,0,1.618-1.439V236.2a.949.949,0,0,0-1-.889h-18A.949.949,0,0,0,23.025,236.2Z" transform="translate(0 -223.903)"/><path class="f" d="M418.679,169.277v11.462h1.245a1.439,1.439,0,0,0,1.439-1.439v-7.339Z" transform="translate(-378.338 -160.387)"/><path class="g" d="M38.878,119.314l-14.25-1.451a1.679,1.679,0,0,1-1.6-1.577V103.735a.562.562,0,0,0,.536.528l15.734,1.6a1.679,1.679,0,0,1,1.6,1.577v10.295A1.74,1.74,0,0,1,38.878,119.314Z" transform="translate(0 -97.348)"/><path class="h" d="M38.878,369.8l-14.25-1.451a1.679,1.679,0,0,1-1.6-1.577v2.507a1.679,1.679,0,0,0,1.6,1.577l14.25,1.451a1.74,1.74,0,0,0,2.021-1.577v-2.507A1.74,1.74,0,0,1,38.878,369.8Z" transform="translate(0 -350.34)"/><path class="i" d="M30.7,138.9l-.032,0-.572-.063a.287.287,0,1,1,.063-.572l.572.063a.288.288,0,0,1-.031.573Z" transform="translate(-6.558 -132.304)"/><path class="j" d="M86.717,156.24l-.043,0-1.3-.141a.3.3,0,0,1-.291-.322.33.33,0,0,1,.376-.249l1.3.141a.3.3,0,0,1,.291.322A.323.323,0,0,1,86.717,156.24Zm1.277-.142a.344.344,0,0,1-.3-.165.271.271,0,0,1,.161-.383,1.233,1.233,0,0,0,.7-.626.353.353,0,0,1,.428-.177.279.279,0,0,1,.206.366,1.826,1.826,0,0,1-1.051.956A.382.382,0,0,1,87.995,156.1Zm-3.873-.14-.043,0-1.3-.141a.3.3,0,0,1-.291-.322.33.33,0,0,1,.376-.249l1.3.141a.3.3,0,0,1,.291.322A.323.323,0,0,1,84.122,155.957Zm-2.6-.283-.043,0-1.3-.141a.3.3,0,0,1-.291-.322.33.33,0,0,1,.376-.249l1.3.141a.3.3,0,0,1,.291.322A.323.323,0,0,1,81.526,155.675Zm-2.6-.283-.043,0-1.3-.141a.3.3,0,0,1-.291-.322.33.33,0,0,1,.376-.249l1.3.141a.3.3,0,0,1,.291.322A.323.323,0,0,1,78.93,155.392Zm-2.6-.283-.043,0-1.3-.141a.3.3,0,0,1-.291-.322.33.33,0,0,1,.376-.249l1.3.141a.3.3,0,0,1,.291.322A.323.323,0,0,1,76.335,155.11Zm12.612-.915a.314.314,0,0,1-.336-.288v-1.12a.34.34,0,0,1,.672,0v1.12A.314.314,0,0,1,88.947,154.194Zm0-2.24a.314.314,0,0,1-.336-.287v-1.12a.34.34,0,0,1,.672,0v1.12A.314.314,0,0,1,88.947,151.955Zm0-2.24a.314.314,0,0,1-.336-.287v-1.12a.34.34,0,0,1,.672,0v1.12A.314.314,0,0,1,88.947,149.715Zm0-2.24a.314.314,0,0,1-.336-.287v-1.12a.34.34,0,0,1,.672,0v1.12A.314.314,0,0,1,88.947,147.476Zm-.47-2.125a.367.367,0,0,1-.231-.079,1.791,1.791,0,0,0-.973-.362h-.009a.3.3,0,0,1-.3-.317.327.327,0,0,1,.37-.255h.006a2.518,2.518,0,0,1,1.366.517.259.259,0,0,1,.013.406A.365.365,0,0,1,88.477,145.351ZM86,144.788l-.037,0-1.3-.122a.3.3,0,0,1-.3-.317.328.328,0,0,1,.371-.254l1.3.122a.3.3,0,0,1,.3.317A.322.322,0,0,1,86,144.788Zm-2.6-.245-.037,0-1.3-.122a.3.3,0,0,1-.3-.317.328.328,0,0,1,.371-.254l1.3.122a.3.3,0,0,1,.3.317A.322.322,0,0,1,83.4,144.543Zm-2.6-.245-.037,0-1.3-.122a.3.3,0,0,1-.3-.317.328.328,0,0,1,.371-.254l1.3.122a.3.3,0,0,1,.3.317A.322.322,0,0,1,80.8,144.3Zm-2.6-.245-.037,0-1.3-.122a.3.3,0,0,1-.3-.317.328.328,0,0,1,.371-.254l1.3.122a.3.3,0,0,1,.3.317A.321.321,0,0,1,78.2,144.054Zm-2.6-.245-.037,0-1.3-.122a.3.3,0,0,1-.3-.317.328.328,0,0,1,.371-.254l1.3.122a.3.3,0,0,1,.3.317A.322.322,0,0,1,75.6,143.809Z" transform="translate(-48.99 -135.221)"/><path class="k" d="M47.316,433.595l-.037,0-.57-.073a.288.288,0,1,1,.073-.57l.57.073a.288.288,0,0,1-.036.573Z" transform="translate(-22.538 -413.989)"/><path class="l" d="M280.824,32.69l-1.84,1a.494.494,0,0,1-.67-.2h0a.494.494,0,0,1,.2-.67l1.84-1a.494.494,0,0,1,.67.2h0A.494.494,0,0,1,280.824,32.69Z" transform="translate(-244.045 -30.549)"/><path class="m" d="M325.626,306.328,323.8,304.5a1.409,1.409,0,1,0-1.991,1.991l3.817,3.817v-3.982Z" transform="translate(-284.728 -290.009)"/><circle class="n" cx="1.409" cy="1.409" r="1.409" transform="translate(36.096 13.293)"/><circle class="o" cx="0.973" cy="0.973" r="0.973" transform="translate(36.501 13.707)"/><circle class="p" cx="0.201" cy="0.201" r="0.201" transform="translate(36.808 14.026)"/><circle class="q" cx="0.201" cy="0.201" r="0.201" transform="translate(37.641 14.026)"/><circle class="r" cx="0.201" cy="0.201" r="0.201" transform="translate(36.808 14.859)"/><circle class="s" cx="0.201" cy="0.201" r="0.201" transform="translate(37.641 14.859)"/></g></svg>