<svg xmlns="http://www.w3.org/2000/svg" width="17.209" height="17.209" viewBox="0 0 17.209 17.209"><defs><style>.a{fill:#60e2f4;}.b{fill:#29c5ec;}.c{fill:#cddbf9;}.d{fill:#f3f6ff;}.e{fill:#3c4a83;}.f{fill:#48588b;}.g{fill:#ea0016;}.h{fill:#ff641a;}</style></defs><g transform="translate(0 0)"><path class="a" d="M6.27,12.678l6.745-6.745A3.073,3.073,0,0,0,17,1.95L15.442,3.506l-1.371-.367L13.7,1.768,15.259.212A3.073,3.073,0,0,0,11.276,4.2L4.531,10.94A3.263,3.263,0,1,0,6.27,12.678ZM2.394,14.816a1.229,1.229,0,1,1,1.738,0A1.229,1.229,0,0,1,2.394,14.816Z" transform="translate(0 0)"/><path class="b" d="M33.045,72.319a3.263,3.263,0,0,1-4.614,0l1.438-1.438a1.229,1.229,0,0,0,1.738-1.738L41.546,59.2l1.371.367,1.556-1.556A3.073,3.073,0,0,1,40.49,62l-6.745,6.745A3.264,3.264,0,0,1,33.045,72.319Z" transform="translate(-27.475 -56.065)"/><path class="c" d="M12.514,11.8l-9.28-9.28.639-.639L1.487,0,0,1.487l1.88,2.386.639-.639,9.28,9.28Z" transform="translate(-0.001 -0.001)"/><path class="d" d="M12.158,33.519.744,22.105,0,22.848l1.88,2.386.639-.639,9.28,9.28Z" transform="translate(-0.001 -21.362)"/><path class="e" d="M304.439,306.877l1.738,1.738.755-.01,1.684-1.684v-.743l-1.738-1.738Z" transform="translate(-294.206 -294.206)"/><path class="f" d="M304.439,341.918l1.738,1.738.755-.01.836-.836-2.111-2.111Z" transform="translate(-294.206 -329.247)"/><path class="g" d="M356.157,358.594l2.3,2.3a1.724,1.724,0,1,0,2.438-2.438l-2.3-2.3Z" transform="translate(-344.186 -344.185)"/><path class="h" d="M356.157,393.636l2.3,2.3a1.724,1.724,0,0,0,2.438,0l-3.515-3.515Z" transform="translate(-344.186 -379.227)"/></g></svg>