<svg xmlns="http://www.w3.org/2000/svg" width="20" height="19.584" viewBox="0 0 20 19.584"><defs><style>.a{fill:#f2cc7b;}.b{fill:#f25f60;}.c{fill:#f2f2f2;}.d{opacity:0.1;}.e{fill:#ffd782;}.f{fill:#ff6465;}.g{fill:#fff;}</style></defs><g transform="translate(0 -5.329)"><path class="a" d="M127.932,6.519l-1.763-1.19a1.082,1.082,0,0,1-1.388.152l-8.835,12.445a1.02,1.02,0,0,1,.342,1.321l1.763,1.19a1.082,1.082,0,0,1,1.388-.152h0a1.02,1.02,0,0,1,.342,1.321l1.763,1.19a1.082,1.082,0,0,1,1.388-.152h0L131.768,10.2h0a1.02,1.02,0,0,1-.342-1.321l-1.763-1.19a1.082,1.082,0,0,1-1.388.152h0A1.02,1.02,0,0,1,127.932,6.519Z" transform="translate(-111.768)"/><path class="b" d="M0,0,10.335.181l.1,6L.1,6Z" transform="matrix(-0.569, 0.822, -0.822, -0.569, 17.031, 12.569)"/><path class="c" d="M256.373,208.269l1.48.444.879-1.27.035,1.544,1.48.444-1.458.511.035,1.544-.936-1.229-1.458.511.879-1.27Z" transform="translate(-246.411 -194.264)"/><path class="d" d="M121.172,75.293l3.343-13.836-1.045-.238.089-.9-.189-.043-7.423,10.414a1.014,1.014,0,0,1,.342,1.315l1.763,1.186a1.085,1.085,0,0,1,1.388-.152h0a1.014,1.014,0,0,1,.342,1.315Z" transform="translate(-111.491 -52.756)"/><path class="e" d="M6.868,47.568,4.78,47.09a1.068,1.068,0,0,1-1.234.638L0,62.473A1.039,1.039,0,0,1,.815,63.58l2.088.478a1.068,1.068,0,0,1,1.234-.638h0a1.039,1.039,0,0,1,.815,1.107l2.088.478a1.068,1.068,0,0,1,1.234-.638h0l3.546-14.745h0A1.039,1.039,0,0,1,11,48.515l-2.088-.478a1.068,1.068,0,0,1-1.234.638h0A1.039,1.039,0,0,1,6.868,47.568Z" transform="translate(0 -40.093)"/><g transform="translate(1.457 9.063)"><path class="f" d="M68.217,110.761a.347.347,0,0,1-.079-.009l-.671-.158a.345.345,0,1,1,.158-.671l.671.158a.345.345,0,0,1-.078.68Z" transform="translate(-65.972 -109.913)"/><path class="f" d="M123.2,123.663a.347.347,0,0,1-.079-.009l-1.386-.325a.345.345,0,1,1,.158-.671l1.386.325a.345.345,0,0,1-.078.68Zm-2.772-.651a.347.347,0,0,1-.079-.009l-1.386-.325a.345.345,0,0,1,.158-.671l1.386.325a.345.345,0,0,1-.078.68Z" transform="translate(-115.416 -121.515)"/><path class="f" d="M258.513,155.415a.347.347,0,0,1-.079-.009l-.671-.158a.345.345,0,1,1,.158-.671l.671.158a.345.345,0,0,1-.078.68Z" transform="translate(-248.666 -152.784)"/><rect class="f" width="10.597" height="6.071" transform="matrix(-0.228, 0.974, -0.974, -0.228, 8.331, 3.437)"/></g><path class="g" d="M93.83,257.458l1.539-.129.353-1.5.6,1.424,1.539-.129-1.169,1.009.6,1.424-1.321-.8L94.8,259.762l.353-1.5Z" transform="translate(-90.185 -240.765)"/><g transform="translate(11.382 6.999)"><path class="b" d="M297.174,48.212a.343.343,0,0,1-.2-.061l-.567-.392a.345.345,0,0,1,.392-.567l.567.392a.345.345,0,0,1-.2.628Z" transform="translate(-296.263 -47.13)"/><path class="b" d="M343.613,80.362a.343.343,0,0,1-.2-.061l-1.171-.81a.345.345,0,1,1,.392-.567l1.171.81a.345.345,0,0,1-.2.628Zm-2.341-1.621a.343.343,0,0,1-.2-.061l-1.171-.81a.345.345,0,1,1,.392-.567l1.171.81a.345.345,0,0,1-.2.628Z" transform="translate(-338.019 -76.039)"/><path class="b" d="M457.882,159.475a.343.343,0,0,1-.2-.061l-.567-.392a.345.345,0,0,1,.393-.567l.567.392a.345.345,0,0,1-.2.628Z" transform="translate(-450.551 -153.948)"/></g></g></svg>