<svg xmlns="http://www.w3.org/2000/svg" width="14.832" height="14.832" viewBox="0 0 14.832 14.832"><defs><style>.a{fill:#fff;}</style></defs><g transform="translate(-10 -10)"><path class="a" d="M22.663,12.17a7.416,7.416,0,1,0,0,10.491A7.369,7.369,0,0,0,22.663,12.17Zm-.648,9.845a6.5,6.5,0,1,1,0-9.2A6.454,6.454,0,0,1,22.015,22.015Z" transform="translate(0 0)"/><path class="a" d="M229.647,224,226.281,224l.018-3.34a.446.446,0,0,0-.132-.322.45.45,0,0,0-.324-.135.455.455,0,0,0-.454.452L225.371,224l-3.316,0a.456.456,0,0,0-.456.454.455.455,0,0,0,.454.454l3.313,0-.018,3.317a.455.455,0,0,0,.453.457h0a.451.451,0,0,0,.322-.133.456.456,0,0,0,.133-.319l.018-3.32,3.37.006a.455.455,0,0,0,.454-.454A.456.456,0,0,0,229.647,224Z" transform="translate(-208.398 -207.019)"/></g></svg>