<svg xmlns="http://www.w3.org/2000/svg" width="49.2" height="38.249" viewBox="0 0 49.2 38.249"><defs><style>.a{fill:#fff;}</style></defs><path class="a" d="M45.614,39.315H32.591L29.961,34.9a1.426,1.426,0,0,0-1.225-.7H20.464a1.426,1.426,0,0,0-1.225.7l-2.63,4.418H12.336v-.974a1.426,1.426,0,0,0-1.426-1.426H5.633a1.426,1.426,0,0,0-1.426,1.426v.974H3.586A3.586,3.586,0,0,0,0,42.9V68.863a3.586,3.586,0,0,0,3.586,3.586H45.614A3.586,3.586,0,0,0,49.2,68.863V42.9A3.586,3.586,0,0,0,45.614,39.315ZM24.6,66.089A10.207,10.207,0,1,1,34.807,55.882,10.207,10.207,0,0,1,24.6,66.089ZM43.377,46.707H38.908a1.426,1.426,0,0,1,0-2.852h4.468a1.426,1.426,0,1,1,0,2.852Z" transform="translate(0 -34.2)"/><circle class="a" cx="7.131" cy="7.131" r="7.131" transform="translate(17.469 14.551)"/></svg>