<svg xmlns="http://www.w3.org/2000/svg" width="14.7" height="13.078" viewBox="0 0 14.7 13.078"><defs><style>.a{fill:#636363;}</style></defs><path class="a" d="M7.35,13.079a.862.862,0,0,1-.568-.214c-.594-.519-1.166-1.007-1.672-1.438l0,0A31.087,31.087,0,0,1,1.458,8,5.472,5.472,0,0,1,0,4.418,4.6,4.6,0,0,1,1.166,1.28,3.953,3.953,0,0,1,4.107,0a3.7,3.7,0,0,1,2.31.8,4.726,4.726,0,0,1,.934.975A4.726,4.726,0,0,1,8.284.8a3.7,3.7,0,0,1,2.31-.8,3.953,3.953,0,0,1,2.94,1.28A4.594,4.594,0,0,1,14.7,4.418,5.471,5.471,0,0,1,13.242,8a31.084,31.084,0,0,1-3.649,3.426c-.506.431-1.079.92-1.675,1.44a.863.863,0,0,1-.568.213ZM4.107.861a3.1,3.1,0,0,0-2.307,1A3.738,3.738,0,0,0,.861,4.418,4.6,4.6,0,0,0,2.121,7.45a30.592,30.592,0,0,0,3.545,3.32l0,0c.507.432,1.082.922,1.68,1.445.6-.524,1.178-1.015,1.686-1.448a30.6,30.6,0,0,0,3.545-3.32,4.6,4.6,0,0,0,1.26-3.032A3.738,3.738,0,0,0,12.9,1.864a3.1,3.1,0,0,0-2.307-1,2.856,2.856,0,0,0-1.783.617,4.179,4.179,0,0,0-.994,1.15.544.544,0,0,1-.934,0,4.175,4.175,0,0,0-.994-1.15A2.856,2.856,0,0,0,4.107.861Zm0,0" transform="translate(0 0)"/></svg>