<svg xmlns="http://www.w3.org/2000/svg" width="13.071" height="11" viewBox="0 0 13.071 11"><defs><style>.a{fill:#dcdcdc;}</style></defs><g transform="translate(0 -6.348)"><path class="a" d="M7.888,8.236A2.375,2.375,0,0,1,8.993,10,1.916,1.916,0,1,0,7.888,8.236ZM6.632,12.161a1.917,1.917,0,1,0-1.917-1.917A1.917,1.917,0,0,0,6.632,12.161Zm.813.131H5.818a2.457,2.457,0,0,0-2.455,2.455v1.989l.005.031.137.043a11.173,11.173,0,0,0,3.337.538A6.851,6.851,0,0,0,9.757,16.8l.128-.065H9.9v-1.99A2.457,2.457,0,0,0,7.445,12.292Zm3.172-1.979H9a2.363,2.363,0,0,1-.729,1.646,2.917,2.917,0,0,1,2.083,2.791v.613a6.605,6.605,0,0,0,2.573-.54l.128-.065h.014v-1.99A2.457,2.457,0,0,0,10.617,10.313Zm-7.349-.13a1.9,1.9,0,0,0,1.02-.3A2.372,2.372,0,0,1,5.18,8.373c0-.036.005-.071.005-.108a1.917,1.917,0,1,0-1.917,1.917ZM4.99,11.958a2.364,2.364,0,0,1-.729-1.636c-.06,0-.119-.009-.18-.009H2.455A2.457,2.457,0,0,0,0,12.767v1.99l.005.031.137.043a11.508,11.508,0,0,0,2.764.52v-.6A2.917,2.917,0,0,1,4.99,11.958Z"/></g></svg>