<svg xmlns="http://www.w3.org/2000/svg" width="23.709" height="28.449" viewBox="0 0 23.709 28.449"><defs><style>.a{fill:#545454;}</style></defs><g transform="translate(0)"><g transform="translate(0 4.149)"><g transform="translate(0)"><path class="a" d="M66.281,94.514l-2.037-3.393a10.084,10.084,0,0,1-1.436-5.185V82.965a8.3,8.3,0,1,0-16.6,0v2.972a10.084,10.084,0,0,1-1.436,5.185l-2.037,3.393a.592.592,0,0,0,.509.9H65.773a.592.592,0,0,0,.509-.9ZM44.3,94.226l1.5-2.5a11.259,11.259,0,0,0,1.6-5.794V82.965a7.112,7.112,0,1,1,14.225,0v2.972a11.269,11.269,0,0,0,1.6,5.794l1.5,2.5Z" transform="translate(-42.657 -74.667)"/></g></g><g transform="translate(9.484)"><g transform="translate(0)"><path class="a" d="M215.7,0a2.373,2.373,0,0,0-2.371,2.371V4.742a.593.593,0,0,0,1.185,0V2.371a1.185,1.185,0,1,1,2.371,0V4.742a.593.593,0,0,0,1.185,0V2.371A2.373,2.373,0,0,0,215.7,0Z" transform="translate(-213.333)"/></g></g><g transform="translate(8.891 23.708)"><path class="a" d="M208.195,426.972a.593.593,0,0,0-1.024.6,1.778,1.778,0,1,1-3.08,0,.593.593,0,1,0-1.024-.6,2.965,2.965,0,1,0,5.128,0Z" transform="translate(-202.666 -426.68)"/></g></g></svg>